<?xml version="1.0" encoding="UTF-8"?>
<svg version="1.1" xmlns="http://www.w3.org/2000/svg" width="500" height="500">
<path d="M0 0 C165 0 330 0 500 0 C500 165 500 330 500 500 C335 500 170 500 0 500 C0 335 0 170 0 0 Z " fill="#CE8F70" transform="translate(0,0)"/>
<path d="M0 0 C0.99 -0.00386719 1.98 -0.00773437 3 -0.01171875 C12.35912507 0.00062838 20.45869082 0.69923373 29.25 4 C29.9615625 4.25652344 30.673125 4.51304688 31.40625 4.77734375 C35.8826995 6.40887022 40.24712667 8.24285267 44.625 10.125 C44.76563639 24.39020612 44.87079782 38.65530355 44.93587303 52.92106247 C44.96711442 59.54609053 45.00945738 66.1706511 45.07763672 72.79541016 C45.14308334 79.19507661 45.17876008 85.5942949 45.19426346 91.99427032 C45.20530426 94.42941589 45.22686421 96.86453839 45.25938034 99.29949188 C45.58197165 124.46974581 45.58197165 124.46974581 38.625 133.125 C32.50445274 139.18240857 25.64820278 142.21850155 17.0625 142.5 C9.52278868 142.26080916 3.13730141 139.21631419 -2.375 134.125 C-8.49865948 126.45022888 -9.66062365 118.75039453 -9.68359375 109.2109375 C-9.70873613 107.29687172 -9.73413439 105.38280929 -9.75976562 103.46875 C-9.78856491 100.47559352 -9.8126093 97.48249474 -9.83129883 94.48925781 C-9.85295015 91.58369738 -9.89236554 88.67877644 -9.93359375 85.7734375 C-9.93376747 84.43422745 -9.93376747 84.43422745 -9.9339447 83.06796265 C-10.00970505 78.30881733 -10.20165681 74.94814823 -13.375 71.125 C-15.5322017 70.37607256 -15.5322017 70.37607256 -17.875 70.5625 C-18.6484375 70.56121094 -19.421875 70.55992187 -20.21875 70.55859375 C-23.16680581 71.33299247 -23.80005622 72.55803093 -25.375 75.125 C-25.83755257 77.45453405 -25.83755257 77.45453405 -25.79492188 79.97851562 C-25.81083374 80.9405188 -25.82674561 81.90252197 -25.84313965 82.89367676 C-25.84344177 84.44677551 -25.84344177 84.44677551 -25.84375 86.03125 C-25.85136353 87.10693237 -25.85897705 88.18261475 -25.86682129 89.29089355 C-25.8776284 91.57053307 -25.88047293 93.85022212 -25.87597656 96.12988281 C-25.87501122 99.58485032 -25.91648256 103.03754462 -25.9609375 106.4921875 C-26.1551847 122.48476197 -26.1551847 122.48476197 -20.375 137.125 C-19.93986084 137.95104736 -19.50472168 138.77709473 -19.05639648 139.62817383 C-14.13971079 148.71880969 -4.28109887 154.46124007 5.25 157.6875 C18.09984414 161.03092468 29.62556817 158.80010047 41.125 152.1875 C44.75111306 149.85223625 47.77629313 147.39263435 50.625 144.125 C51.285 143.403125 51.945 142.68125 52.625 141.9375 C57.17449858 135.53976762 60.71471349 128.71823528 60.78321838 120.77166748 C60.7930072 119.90792511 60.80279602 119.04418274 60.81288147 118.15426636 C60.81863693 117.21487213 60.8243924 116.27547791 60.83032227 115.30761719 C60.84022186 114.31216888 60.85012146 113.31672058 60.86032104 112.29110718 C60.89190395 109.0013873 60.91668089 105.71165298 60.94140625 102.421875 C60.96197854 100.14072291 60.98297509 97.85957461 61.00437927 95.57843018 C61.0595715 89.57465687 61.1089934 83.57084932 61.15722656 77.5670166 C61.20746234 71.44048007 61.26313758 65.31399326 61.31835938 59.1875 C61.42590613 47.16670914 61.52735889 35.14587511 61.625 23.125 C75.15813898 29.63316975 84.02591857 46.86172139 89.625 60.125 C93.61352538 71.76325036 94.82320027 82.51231276 94.875 94.75 C94.9059375 96.54244141 94.9059375 96.54244141 94.9375 98.37109375 C95.04676088 123.58304126 83.98190287 145.05683469 67 163.125 C45.86153751 183.52176206 20.31667746 189.93761504 -8.40625 189.5078125 C-19.34279753 189.09606274 -28.89421804 186.43826336 -38.62060547 181.52612305 C-39.51327118 181.07633591 -40.40593689 180.62654877 -41.32565308 180.16313171 C-42.00193756 179.82054825 -42.67822205 179.47796478 -43.375 179.125 C-43.46859702 164.79062815 -43.53878798 150.45630395 -43.58224869 136.12168884 C-43.60310935 129.46528054 -43.63139972 122.80913236 -43.67675781 116.15283203 C-43.72026877 109.72727441 -43.74414858 103.30191429 -43.75450897 96.8762207 C-43.76189081 94.42664481 -43.7763058 91.97707954 -43.79792023 89.52758789 C-43.82702288 86.09237439 -43.83095298 82.65797351 -43.82910156 79.22265625 C-43.85067322 77.7089016 -43.85067322 77.7089016 -43.87268066 76.16456604 C-43.81933045 66.99609753 -40.8113682 60.71105119 -34.375 54.125 C-26.73810353 48.74133199 -19.48926737 48.52465904 -10.375 49.125 C-3.96189133 50.44077512 1.17886396 53.8061884 5.0703125 59.0859375 C8.26914736 64.00300366 9.72158531 67.83594929 9.81445312 73.73828125 C9.83117065 74.64602295 9.84788818 75.55376465 9.8651123 76.48901367 C9.87868774 77.46201416 9.89226318 78.43501465 9.90625 79.4375 C9.92465942 80.44337158 9.94306885 81.44924316 9.96203613 82.4855957 C10.04061367 86.78683986 10.10840811 91.08823918 10.17724609 95.38964844 C10.22904216 98.5306758 10.28626486 101.67157244 10.34375 104.8125 C10.35732544 105.78550049 10.37090088 106.75850098 10.3848877 107.76098633 C10.40160522 108.66872803 10.41832275 109.57646973 10.43554688 110.51171875 C10.44807495 111.30795654 10.46060303 112.10419434 10.47351074 112.92456055 C10.62728376 115.15817242 10.82659567 117.02852149 11.625 119.125 C15.2405391 120.3301797 18.90022224 121.08300426 22.625 120.125 C25.05802988 117.95209469 26.45124801 116.15381487 27.00205994 112.8923645 C27.15518714 110.09536958 27.17916841 107.3245857 27.15625 104.5234375 C27.1600769 103.49119049 27.16390381 102.45894348 27.16784668 101.39541626 C27.17056572 99.21168035 27.16320519 97.02791187 27.14648438 94.84423828 C27.12520635 91.53212026 27.14621933 88.22220401 27.171875 84.91015625 C27.16922917 82.78124527 27.16409893 80.65233565 27.15625 78.5234375 C27.16434692 77.54595551 27.17244385 76.56847351 27.18078613 75.56137085 C27.04565592 65.44398202 23.88458384 57.26457865 17.9921875 49.09765625 C16.625 47.125 16.625 47.125 15.6953125 44.99609375 C14.33893313 42.62490501 13.10472706 42.18510636 10.625 41.125 C9.40933492 40.34463857 8.20117459 39.55248686 7 38.75 C-3.80119662 32.11975726 -13.80486182 30.57710241 -26.375 32.125 C-30.76535214 33.2513458 -34.44941577 34.88180901 -38.375 37.125 C-39.58542969 37.75921875 -39.58542969 37.75921875 -40.8203125 38.40625 C-50.44187115 44.01610793 -56.87311714 54.4073879 -59.90832424 64.98332596 C-60.38576205 67.17438933 -60.5133187 69.12430518 -60.53321838 71.36444092 C-60.5430072 72.20294083 -60.55279602 73.04144073 -60.56288147 73.90534973 C-60.56863693 74.81669174 -60.5743924 75.72803375 -60.58032227 76.66699219 C-60.59022186 77.63317978 -60.60012146 78.59936737 -60.61032104 79.59483337 C-60.64189842 82.78715569 -60.66667869 85.97949288 -60.69140625 89.171875 C-60.71197902 91.38576646 -60.73297558 93.59965402 -60.75437927 95.8135376 C-60.80956656 101.63975872 -60.85899063 107.4660151 -60.90722656 113.29229736 C-60.95746595 119.23786557 -61.0131393 125.18338259 -61.06835938 131.12890625 C-61.17590008 142.79422711 -61.27735418 154.45959241 -61.375 166.125 C-71.60276398 160.18248217 -77.74379283 150.27787563 -83.375 140.125 C-84.19484375 138.64966797 -84.19484375 138.64966797 -85.03125 137.14453125 C-95.45270219 116.59406557 -98.47701734 90.15905957 -91.828125 67.98828125 C-82.34524243 41.74543447 -65.40176918 20.46851247 -39.9375 8.3125 C-27.01585883 2.40560726 -14.17227142 -0.05493128 0 0 Z " fill="#029FFB" transform="translate(270.375,90.875)"/>
<path d="M0 0 C3.196875 -0.0825 6.39375 -0.165 9.6875 -0.25 C10.68612061 -0.28641602 11.68474121 -0.32283203 12.71362305 -0.36035156 C16.87154743 -0.41229943 19.407142 -0.32506768 23.11328125 1.70703125 C25.90428155 5.09899228 25.56288291 7.39462296 25.390625 11.62109375 C25 14 25 14 23.25 16.5 C21.68456666 18.92649477 21.68456666 18.92649477 22.69140625 21.4140625 C23.42662742 23.19191439 24.20175185 24.95389229 25.01953125 26.6953125 C26 29 26 29 26 32 C23.36 32 20.72 32 18 32 C17.32942113 30.2097939 16.6636531 28.41778511 16 26.625 C15.62875 25.62726563 15.2575 24.62953125 14.875 23.6015625 C14 21 14 21 14 19 C12.02 19 10.04 19 8 19 C8 23.29 8 27.58 8 32 C5.36 32 2.72 32 0 32 C0 21.44 0 10.88 0 0 Z " fill="#084DAC" transform="translate(287,312)"/>
<path d="M0 0 C8 0 8 0 9.91796875 1.65234375 C10.33691406 2.40644531 10.75585938 3.16054688 11.1875 3.9375 C11.65800781 4.74960937 12.12851563 5.56171875 12.61328125 6.3984375 C13.07089844 7.25695312 13.52851563 8.11546875 14 9 C14.48855469 9.85851562 14.97710937 10.71703125 15.48046875 11.6015625 C16.68055023 13.71935335 17.84392843 15.85786738 19 18 C19.33 12.06 19.66 6.12 20 0 C22.31 0 24.62 0 27 0 C27 10.56 27 21.12 27 32 C19 32 19 32 17.08203125 30.43945312 C16.66308594 29.72724609 16.24414062 29.01503906 15.8125 28.28125 C15.34199219 27.51425781 14.87148437 26.74726563 14.38671875 25.95703125 C13.92910156 25.14621094 13.47148437 24.33539063 13 23.5 C12.51144531 22.68917969 12.02289063 21.87835938 11.51953125 21.04296875 C10.32021071 19.04410119 9.15652969 17.02392696 8 15 C7.67 20.61 7.34 26.22 7 32 C4.69 32 2.38 32 0 32 C0 21.44 0 10.88 0 0 Z " fill="#014AAC" transform="translate(122,312)"/>
<path d="M0 0 C2.97 0 5.94 0 9 0 C9.23187012 0.70608398 9.46374023 1.41216797 9.70263672 2.13964844 C10.7569291 5.34414933 11.81591131 8.54708125 12.875 11.75 C13.23980469 12.86117188 13.60460937 13.97234375 13.98046875 15.1171875 C14.33496094 16.18710937 14.68945312 17.25703125 15.0546875 18.359375 C15.37937012 19.34389648 15.70405273 20.32841797 16.03857422 21.34277344 C16.91346022 23.95792883 16.91346022 23.95792883 18.12158203 26.10253906 C19 28 19 28 19 32 C16.36 32 13.72 32 11 32 C10.67 30.02 10.34 28.04 10 26 C6.37 26 2.74 26 -1 26 C-1.33 27.98 -1.66 29.96 -2 32 C-4.97 32 -7.94 32 -11 32 C-9.59607295 27.76352189 -8.19018645 23.52770073 -6.7824707 19.29248047 C-6.30373933 17.8512539 -5.82554632 16.40984838 -5.34790039 14.96826172 C-4.66173087 12.89764008 -3.97363545 10.82766715 -3.28515625 8.7578125 C-2.66459351 6.88826904 -2.66459351 6.88826904 -2.03149414 4.98095703 C-1 2 -1 2 0 0 Z " fill="#074DAC" transform="translate(329,312)"/>
<path d="M0 0 C1.69921875 1.16796875 1.69921875 1.16796875 3.69921875 4.16796875 C3.69921875 5.48796875 3.69921875 6.80796875 3.69921875 8.16796875 C0.32421875 8.35546875 0.32421875 8.35546875 -3.30078125 8.16796875 C-3.96078125 7.17796875 -4.62078125 6.18796875 -5.30078125 5.16796875 C-8.88435366 4.91781002 -8.88435366 4.91781002 -12.30078125 5.16796875 C-11.97078125 6.48796875 -11.64078125 7.80796875 -11.30078125 9.16796875 C-10.72070312 9.2659375 -10.140625 9.36390625 -9.54296875 9.46484375 C-3.85683243 10.55327909 0.50576857 11.97451857 4.69921875 16.16796875 C5.2313465 20.46860775 5.52839604 24.01304324 2.94921875 27.60546875 C-1.69088859 30.82776551 -4.49804039 31.65972645 -10.30078125 31.16796875 C-15.41566434 29.52080301 -18.4744718 27.80311625 -21.30078125 23.16796875 C-21.30078125 21.84796875 -21.30078125 20.52796875 -21.30078125 19.16796875 C-17.98828125 18.91796875 -17.98828125 18.91796875 -14.30078125 19.16796875 C-13.84703125 19.82796875 -13.39328125 20.48796875 -12.92578125 21.16796875 C-11.49673645 23.39945386 -11.49673645 23.39945386 -9.125 23.43359375 C-6.83887077 23.41937211 -4.58018323 23.33999909 -2.30078125 23.16796875 C-2.30078125 21.84796875 -2.30078125 20.52796875 -2.30078125 19.16796875 C-3.10902344 18.98621094 -3.91726562 18.80445313 -4.75 18.6171875 C-5.81863281 18.36582031 -6.88726562 18.11445313 -7.98828125 17.85546875 C-9.04402344 17.61183594 -10.09976563 17.36820312 -11.1875 17.1171875 C-15.85377243 15.69447207 -18.57736414 14.25309442 -21.30078125 10.16796875 C-21.79636071 6.36852623 -21.62703782 4.68065764 -19.55078125 1.41796875 C-13.49240856 -4.64040394 -7.2195198 -3.70195416 0 0 Z " fill="#094DAB" transform="translate(208.30078125,313.83203125)"/>
<path d="M0 0 C3.92896623 2.06875504 6.25682282 4.2194667 8.02734375 8.28125 C8.02734375 9.27125 8.02734375 10.26125 8.02734375 11.28125 C2.6922922 11.6369201 2.6922922 11.6369201 0.02734375 11.28125 C-1.30598958 9.94791667 -2.63932292 8.61458333 -3.97265625 7.28125 C-7.59915576 7.19208846 -7.59915576 7.19208846 -10.97265625 8.28125 C-13.80213135 12.52546265 -13.61564077 16.30015472 -12.97265625 21.28125 C-11.63443466 24.12199462 -11.63443466 24.12199462 -8.97265625 25.28125 C-5.34615674 25.37041154 -5.34615674 25.37041154 -1.97265625 24.28125 C-1.31265625 23.29125 -0.65265625 22.30125 0.02734375 21.28125 C1.97265625 20.98828125 1.97265625 20.98828125 4.15234375 21.09375 C5.43109375 21.155625 6.70984375 21.2175 8.02734375 21.28125 C7.17686596 25.7037345 6.65405511 27.7745472 3.08984375 30.65625 C-1.58583072 33.13722013 -5.71461057 33.99961677 -10.97265625 33.28125 C-15.60067824 30.87823858 -19.92492302 27.59208701 -21.55859375 22.4296875 C-22.61821209 16.9316678 -22.81352604 11.96298959 -20.28515625 6.90625 C-14.79014579 0.66867055 -8.36720974 -3.04864672 0 0 Z " fill="#084EAC" transform="translate(271.97265625,311.71875)"/>
<path d="M0 0 C6.93 0 13.86 0 21 0 C21 1.98 21 3.96 21 6 C16.38 6 11.76 6 7 6 C7 8.31 7 10.62 7 13 C11.29 13 15.58 13 20 13 C20 14.98 20 16.96 20 19 C15.71 19 11.42 19 7 19 C7 20.98 7 22.96 7 25 C11.62 25 16.24 25 21 25 C21 27.31 21 29.62 21 32 C14.07 32 7.14 32 0 32 C0 21.44 0 10.88 0 0 Z " fill="#014AAC" transform="translate(158,312)"/>
<path d="M0 0 C8.91 0 17.82 0 27 0 C27 2.64 27 5.28 27 8 C24.36 8.33 21.72 8.66 19 9 C18.67 16.92 18.34 24.84 18 33 C15.03 33 12.06 33 9 33 C9 24.75 9 16.5 9 8 C6.03 8 3.06 8 0 8 C0 5.36 0 2.72 0 0 Z " fill="#1A53A7" transform="translate(381,311)"/>
<path d="M0 0 C6.93 0 13.86 0 21 0 C21 1.98 21 3.96 21 6 C16.38 6 11.76 6 7 6 C7 8.31 7 10.62 7 13 C11.29 13 15.58 13 20 13 C20 14.98 20 16.96 20 19 C15.71 19 11.42 19 7 19 C7 23.29 7 27.58 7 32 C4.69 32 2.38 32 0 32 C0 21.44 0 10.88 0 0 Z " fill="#004AAD" transform="translate(355,312)"/>
<path d="M0 0 C8.25 0 16.5 0 25 0 C25 1.98 25 3.96 25 6 C22.03 6 19.06 6 16 6 C16 14.58 16 23.16 16 32 C13.69 32 11.38 32 9 32 C9 23.42 9 14.84 9 6 C6.03 6 3.06 6 0 6 C0 4.02 0 2.04 0 0 Z " fill="#004AAD" transform="translate(219,312)"/>
<path d="M0 0 C2 2 2 2 2 5 C0.68 5 -0.64 5 -2 5 C-2 4.34 -2 3.68 -2 3 C-2.99 3 -3.98 3 -5 3 C-5 3.99 -5 4.98 -5 6 C-2.69 6.66 -0.38 7.32 2 8 C2.125 10.875 2.125 10.875 2 14 C0 16 0 16 -2.9375 16.25 C-6 16 -6 16 -9 14 C-9 13.01 -9 12.02 -9 11 C-7.68 11 -6.36 11 -5 11 C-5 11.66 -5 12.32 -5 13 C-3.68 13 -2.36 13 -1 13 C-1.33 12.01 -1.66 11.02 -2 10 C-5.00847418 8.77479736 -5.00847418 8.77479736 -8 8 C-8.33 6.02 -8.66 4.04 -9 2 C-5.54754176 -0.30163882 -4.05261287 -0.34490322 0 0 Z " fill="#F15E1D" transform="translate(212,361)"/>
<path d="M0 0 C1.8125 1.125 1.8125 1.125 3 3 C3.39365568 6.14924548 3.52854531 8.11909116 1.875 10.875 C-0.84218824 12.50531294 -2.89652746 12.33015665 -6 12 C-8 10 -8 10 -8.3125 6.5625 C-8 3 -8 3 -6.8125 1.0625 C-4.33950907 -0.38718434 -2.82115488 -0.42317323 0 0 Z " fill="#F15E1D" transform="translate(227,365)"/>
<path d="M0 0 C1.39935013 2.79870027 1.25265405 4.90498792 1 8 C-0.0625 9.9375 -0.0625 9.9375 -2 11 C-5.625 10.8125 -5.625 10.8125 -9 10 C-10.39935013 7.20129973 -10.25265405 5.09501208 -10 2 C-7.65446208 -2.27715738 -4.20919664 -1.01332512 0 0 Z " fill="#F05B1B" transform="translate(291,366)"/>
<path d="M0 0 C0.99 0 1.98 0 3 0 C3 2.97 3 5.94 3 9 C4.32 9 5.64 9 7 9 C7 6.03 7 3.06 7 0 C8.32 0 9.64 0 11 0 C11 3.96 11 7.92 11 12 C4.1640625 12.1953125 4.1640625 12.1953125 2 12 C0 10 0 10 -0.1953125 7.6171875 C-0.17210937 6.71226562 -0.14890625 5.80734375 -0.125 4.875 C-0.10695312 3.96492188 -0.08890625 3.05484375 -0.0703125 2.1171875 C-0.04710937 1.41851562 -0.02390625 0.71984375 0 0 Z " fill="#F26122" transform="translate(245,365)"/>
<path d="M0 0 C1.32 0.33 2.64 0.66 4 1 C4.86625 0.814375 5.7325 0.62875 6.625 0.4375 C7.40875 0.293125 8.1925 0.14875 9 0 C11 2 11 2 11.1953125 4.3828125 C11.17210937 5.28773438 11.14890625 6.19265625 11.125 7.125 C11.10695313 8.03507812 11.08890625 8.94515625 11.0703125 9.8828125 C11.04710937 10.58148438 11.02390625 11.28015625 11 12 C9.68 12 8.36 12 7 12 C7 9.03 7 6.06 7 3 C6.01 3.33 5.02 3.66 4 4 C3.67 6.64 3.34 9.28 3 12 C2.01 12 1.02 12 0 12 C0 8.04 0 4.08 0 0 Z " fill="#EF5E20" transform="translate(297,365)"/>
<path d="M0 0 C1.4540625 0.0309375 1.4540625 0.0309375 2.9375 0.0625 C3.2675 1.0525 3.5975 2.0425 3.9375 3.0625 C2.2875 2.7325 0.6375 2.4025 -1.0625 2.0625 C-1.0625 3.0525 -1.0625 4.0425 -1.0625 5.0625 C0.5875 5.3925 2.2375 5.7225 3.9375 6.0625 C4.5625 7.9375 4.5625 7.9375 4.9375 10.0625 C2.9375 12.0625 2.9375 12.0625 -0.1875 12.1875 C-1.610625 12.125625 -1.610625 12.125625 -3.0625 12.0625 C-3.3925 10.7425 -3.7225 9.4225 -4.0625 8.0625 C-2.4125 8.0625 -0.7625 8.0625 0.9375 8.0625 C-1.5375 7.0725 -1.5375 7.0725 -4.0625 6.0625 C-4.105221 4.39638095 -4.10313832 2.72867115 -4.0625 1.0625 C-3.0625 0.0625 -3.0625 0.0625 0 0 Z " fill="#EF5C1C" transform="translate(317.0625,364.9375)"/>
<path d="M0 0 C0.99 0 1.98 0 3 0 C3 1.32 3 2.64 3 4 C3.99 4 4.98 4 6 4 C6 4.99 6 5.98 6 7 C5.01 7 4.02 7 3 7 C3.34227572 9.97065509 3.34227572 9.97065509 4 13 C4.66 13.33 5.32 13.66 6 14 C6 14.66 6 15.32 6 16 C4.33388095 16.042721 2.66617115 16.04063832 1 16 C0 15 0 15 -0.09765625 13.15234375 C-0.06510417 11.1015625 -0.03255208 9.05078125 0 7 C-0.66 7 -1.32 7 -2 7 C-2 6.01 -2 5.02 -2 4 C-1.34 4 -0.68 4 0 4 C0 2.68 0 1.36 0 0 Z " fill="#F15C1C" transform="translate(262,361)"/>
<path d="M0 0 C2.97 0 5.94 0 9 0 C9.33 1.65 9.66 3.3 10 5 C6.78548731 6.60725635 3.56387464 6.05748185 0 6 C0 4.02 0 2.04 0 0 Z " fill="#E2B097" transform="translate(295,319)"/>
<path d="M0 0 C0.99 0 1.98 0 3 0 C3.06058594 0.97582031 3.12117187 1.95164062 3.18359375 2.95703125 C3.26738281 4.22933594 3.35117188 5.50164062 3.4375 6.8125 C3.51871094 8.07707031 3.59992188 9.34164063 3.68359375 10.64453125 C3.87184547 13.99181893 3.87184547 13.99181893 5 17 C3.35 16.67 1.7 16.34 0 16 C0 10.72 0 5.44 0 0 Z " fill="#F15715" transform="translate(235,360)"/>
<path d="M0 0 C0.99 0 1.98 0 3 0 C3 2.97 3 5.94 3 9 C4.65 9.33 6.3 9.66 8 10 C7.67 10.66 7.34 11.32 7 12 C4.625 12.125 4.625 12.125 2 12 C0 10 0 10 -0.1953125 7.6171875 C-0.17210937 6.71226562 -0.14890625 5.80734375 -0.125 4.875 C-0.10695312 3.96492188 -0.08890625 3.05484375 -0.0703125 2.1171875 C-0.04710937 1.41851562 -0.02390625 0.71984375 0 0 Z " fill="#F15918" transform="translate(245,365)"/>
<path d="M0 0 C1.32 0.33 2.64 0.66 4 1 C4.99 1 5.98 1 7 1 C6.2884375 1.495 6.2884375 1.495 5.5625 2 C3.14208385 5.09813267 3.31801083 8.12026792 3 12 C2.01 12 1.02 12 0 12 C0 8.04 0 4.08 0 0 Z " fill="#F05716" transform="translate(297,365)"/>
<path d="M0 0 C2.3129482 2.3129482 2.49580975 3.47904875 3.125 6.625 C3.29257812 7.44226563 3.46015625 8.25953125 3.6328125 9.1015625 C3.81457031 10.04128906 3.81457031 10.04128906 4 11 C1.69 11 -0.62 11 -3 11 C-2.69078116 9.54096742 -2.37751201 8.08279278 -2.0625 6.625 C-1.88847656 5.81289063 -1.71445312 5.00078125 -1.53515625 4.1640625 C-1 2 -1 2 0 0 Z " fill="#AE9496" transform="translate(333,321)"/>
<path d="M0 0 C0.99 0 1.98 0 3 0 C3 3.96 3 7.92 3 12 C2.01 12 1.02 12 0 12 C0 8.04 0 4.08 0 0 Z " fill="#F15715" transform="translate(273,365)"/>
<path d="M0 0 C1.98 0.495 1.98 0.495 4 1 C3.67 2.65 3.34 4.3 3 6 C1.68 5.67 0.36 5.34 -1 5 C-0.67 3.35 -0.34 1.7 0 0 Z " fill="#EDAB89" transform="translate(285,368)"/>
<path d="M0 0 C0 0.99 0 1.98 0 3 C-1.32 3 -2.64 3 -4 3 C-4 2.34 -4 1.68 -4 1 C-5.32 1 -6.64 1 -8 1 C-8.33 1.66 -8.66 2.32 -9 3 C-9 2.01 -9 1.02 -9 0 C-5.67465243 -1.10844919 -3.37817425 -0.84454356 0 0 Z " fill="#FCA775" transform="translate(211,371)"/>
<path d="M0 0 C0.99 0 1.98 0 3 0 C3 1.98 3 3.96 3 6 C1.68 5.67 0.36 5.34 -1 5 C-0.67 3.35 -0.34 1.7 0 0 Z " fill="#FEB88D" transform="translate(223,368)"/>
</svg>
